<svg
    version="1.0"
    xmlns="http://www.w3.org/2000/svg"
    xmlns:xlink="http://www.w3.org/1999/xlink"
    width="20%"
    height="20%"
    preserveAspectRatio="xMidYMid meet"
    color-interpolation-filters="sRGB"
    style="margin: auto"
>
    <g class="iconsvg-imagesvg" transform="translate(0,0)">
        <g>
            <rect
                fill="#333"
                fill-opacity="0"
                stroke-width="2"
                x="0"
                y="0"
                width="60"
                height="44.99133916721031"
                class="image-rect"
            ></rect>
            <svg
                x="0"
                y="0"
                filtersec="colorsb4910973708"
                class="logo-primary"
                style="overflow: visible"
            >
                <svg
                    xmlns="http://www.w3.org/2000/svg"
                    viewBox="0 0 138 103.47999572753906"
                >
                    <path
                        d="M138 .18c-.74 5.37-3.43 7.87-8.11 7.87H78.41a5.68 5.68 0 0 0-5.68 3.27C62.3 29.5 51.71 47.65 41.16 65.81c-.59 1-1.28 2-1.93 2.93-4.54-3.63-5.16-6.41-2.45-11.11Q52.46 30.48 68.19 3.38C69.27 1.51 70.51.23 73 .23c21 0 41.92-.14 62.88-.23.64 0 1.28.11 2.12.18z"
                        fill="#FF6347"
                    ></path>
                    <path
                        d="M128 17.82c-1.38 5.9-3.11 7.34-8.55 7.35-10.42 0-20.85.11-31.27 0a5.52 5.52 0 0 0-5.45 3.16q-16 27.72-32.14 55.33c-.51.87-1.21 1.64-2.12 2.86a44.12 44.12 0 0 1-3.48-6 4.72 4.72 0 0 1 .44-3.6Q62 48.26 78.77 19.69A4.71 4.71 0 0 1 82 17.5c14.87-.16 29.75-.14 44.63-.14a5.56 5.56 0 0 1 1.37.46z"
                        fill="#FF6347"
                    ></path>
                    <path
                        d="M59 103.48c-4.08-2.85-5.05-6.89-2.85-10.67Q72.12 65.29 88 37.7c1.27-2.2 2.71-3.36 5.39-3.27 7.38.23 14.77.23 22.15.35a16.74 16.74 0 0 1 2.46.39c-1.85 6.22-3 7.12-9.07 7.12-3.37 0-6.75.19-10.1-.06-3.15-.23-4.93 1-6.46 3.72-10.44 18.24-21 36.4-31.53 54.59-.56 1-1.24 1.96-1.84 2.94z"
                        fill="#FF6347"
                    ></path>
                    <path
                        d="M0 .43h4.22Q29.59.42 55 .43a14.27 14.27 0 0 1 3 .65c-.34 1.07-.62 2.17-1 3.21-1.19 3-3.34 3.92-6.62 3.87C36.89 8 23.45 8.12 10 8.14c-6.85.01-7.18-.22-10-7.71zM10 18h38.49c-2.39 6.75-3.13 7.3-9.49 7.28H18.8c-6-.04-6.86-.7-8.8-7.28z"
                        fill="#990000"
                    ></path>
                </svg>
            </svg>
            <!---->
        </g>
    </g>
</svg>
