<svg
    version="1.0"
    xmlns="http://www.w3.org/2000/svg"
    xmlns:xlink="http://www.w3.org/1999/xlink"

    preserveAspectRatio="xMidYMid meet"
    color-interpolation-filters="sRGB"
    style="margin: auto"
>
    <rect
        x="0"
        y="0"
        fill="#ffffff"
        fill-opacity="0"
        class="svg-logo-background"
    ></rect>

    <g
        fill="#333"
        class="icon-text-wrapper icon-svg-group iconsvg"
        transform="translate(47.470001220703125,102.50432968139648)"
    >
        <g class="iconsvg-imagesvg" transform="translate(0,0)">
            <g>
                <rect
                    fill="#333"
                    fill-opacity="0"
                    stroke-width="2"
                    x="0"
                    y="0"
                    width="60"
                    height="44.99133916721031"
                    class="image-rect"
                ></rect>
                <svg
                    x="0"
                    y="0"
                    width="60"
                    height="44.99133916721031"
                    filtersec="colorsb4910973708"
                    class="logo-primary"
                    style="overflow: visible"
                >
                    <svg
                        xmlns="http://www.w3.org/2000/svg"
                        viewBox="0 0 138 103.47999572753906"
                    >
                        <path
                            d="M138 .18c-.74 5.37-3.43 7.87-8.11 7.87H78.41a5.68 5.68 0 0 0-5.68 3.27C62.3 29.5 51.71 47.65 41.16 65.81c-.59 1-1.28 2-1.93 2.93-4.54-3.63-5.16-6.41-2.45-11.11Q52.46 30.48 68.19 3.38C69.27 1.51 70.51.23 73 .23c21 0 41.92-.14 62.88-.23.64 0 1.28.11 2.12.18z"
                            fill="#FF6347"
                        ></path>
                        <path
                            d="M128 17.82c-1.38 5.9-3.11 7.34-8.55 7.35-10.42 0-20.85.11-31.27 0a5.52 5.52 0 0 0-5.45 3.16q-16 27.72-32.14 55.33c-.51.87-1.21 1.64-2.12 2.86a44.12 44.12 0 0 1-3.48-6 4.72 4.72 0 0 1 .44-3.6Q62 48.26 78.77 19.69A4.71 4.71 0 0 1 82 17.5c14.87-.16 29.75-.14 44.63-.14a5.56 5.56 0 0 1 1.37.46z"
                            fill="#FF6347"
                        ></path>
                        <path
                            d="M59 103.48c-4.08-2.85-5.05-6.89-2.85-10.67Q72.12 65.29 88 37.7c1.27-2.2 2.71-3.36 5.39-3.27 7.38.23 14.77.23 22.15.35a16.74 16.74 0 0 1 2.46.39c-1.85 6.22-3 7.12-9.07 7.12-3.37 0-6.75.19-10.1-.06-3.15-.23-4.93 1-6.46 3.72-10.44 18.24-21 36.4-31.53 54.59-.56 1-1.24 1.96-1.84 2.94z"
                            fill="#FF6347"
                        ></path>
                        <path
                            d="M0 .43h4.22Q29.59.42 55 .43a14.27 14.27 0 0 1 3 .65c-.34 1.07-.62 2.17-1 3.21-1.19 3-3.34 3.92-6.62 3.87C36.89 8 23.45 8.12 10 8.14c-6.85.01-7.18-.22-10-7.71zM10 18h38.49c-2.39 6.75-3.13 7.3-9.49 7.28H18.8c-6-.04-6.86-.7-8.8-7.28z"
                            fill="#990000"
                        ></path>
                    </svg>
                </svg>
                <!---->
            </g>
        </g>
        <g transform="translate(67,8.620670318603516)">
            <g
                data-gra="path-name"
                fill-rule=""
                class="logo-secondary"
            >
                <g transform="scale(1)">
                    <g>
                        <path
                            d="M3.25-27.75L3.25-27.75 24.91-27.75Q26.69-27.75 27.85-25.68L27.85-25.68Q28.06-25.05 28.06-24.7L28.06-24.7 28.06-23.92Q28.06-22.26 25.97-21.14L25.97-21.14Q25.3-20.86 24.7-20.86L24.7-20.86 17.52-20.86 17.52-3.23Q17.52-1.08 14.98-0.06L14.98-0.06 14.42 0 13.65 0Q11.96 0 10.82-2.07L10.82-2.07Q10.55-2.75 10.55-3.33L10.55-3.33 10.55-20.86 3.54-20.86Q1.08-20.86 0.12-23.32L0.12-23.32Q0-23.83 0-24.04L0-24.04 0-24.52Q0-26.63 2.48-27.64L2.48-27.64Q2.9-27.75 3.25-27.75ZM33.15-27.75L33.15-27.75 33.7-27.75Q35.07-27.75 36.74-25.9L36.74-25.9Q43.97-18.75 44.09-18.74L44.09-18.74Q52.65-27.31 52.94-27.31L52.94-27.31Q53.75-27.75 54.37-27.75L54.37-27.75 54.91-27.75Q56.75-27.75 57.85-25.63L57.85-25.63Q58.06-25.06 58.06-24.64L58.06-24.64 58.06-23.98Q58.06-22.51 55.53-20.38L55.53-20.38 47.52-12.46 47.52-3.23Q47.52-1.1 44.98-0.06L44.98-0.06 44.42 0 43.65 0Q41.94 0 40.78-2.13L40.78-2.13Q40.55-2.81 40.55-3.27L40.55-3.27 40.55-12.46Q30.52-22.32 30.5-22.45L30.5-22.45Q30-23.4 30-24.04L30-24.04 30-24.52Q30-26.44 32.15-27.54L32.15-27.54Q32.71-27.75 33.15-27.75ZM63.25-27.75L63.25-27.75 79.78-27.75Q83.32-27.75 86.3-24.43L86.3-24.43Q88.06-21.89 88.06-19.66L88.06-19.66 88.06-18.52Q88.06-15.15 84.75-12.23L84.75-12.23Q82.22-10.43 79.61-10.43L79.61-10.43 66.97-10.43 66.97-3.33Q66.97-1.06 64.35-0.06L64.35-0.06Q64.06 0 63.87 0L63.87 0 63.1 0Q61.34 0 60.21-2.13L60.21-2.13Q60-2.69 60-3.12L60-3.12 60-24.52Q60-26.63 62.48-27.64L62.48-27.64Q62.9-27.75 63.25-27.75ZM81.1-20.86L66.97-20.86 66.97-17.26 81.1-17.26 81.1-20.86ZM93.25-27.75L93.25-27.75 114.91-27.75Q116.69-27.75 117.85-25.68L117.85-25.68Q118.06-25.05 118.06-24.7L118.06-24.7 118.06-23.92Q118.06-22.26 115.97-21.14L115.97-21.14Q115.3-20.86 114.7-20.86L114.7-20.86 96.97-20.86 96.97-17.32 110.67-17.32Q113.28-17.32 114.19-15.25L114.19-15.25Q114.46-14.65 114.46-14.15L114.46-14.15 114.46-13.66Q114.46-11.55 111.99-10.55L111.99-10.55Q111.58-10.43 111.21-10.43L111.21-10.43 96.97-10.43 96.97-6.89 114.31-6.89Q117.37-6.89 118.06-3.93L118.06-3.93 118.06-3Q118.06-1.39 116.07-0.27L116.07-0.27Q115.51 0 115.03 0L115.03 0 93.1 0Q91.34 0 90.21-2.13L90.21-2.13Q90-2.69 90-3.12L90-3.12 90-24.52Q90-26.63 92.48-27.64L92.48-27.64Q92.9-27.75 93.25-27.75ZM129.64-27.75L129.64-27.75 144.87-27.75Q147-27.75 148.01-25.45L148.01-25.45Q148.06-25.16 148.06-24.97L148.06-24.97 148.06-23.92Q148.06-22.3 146.01-21.14L146.01-21.14Q145.2-20.86 144.7-20.86L144.7-20.86 127.01-20.86 127.01-17.38 137.54-17.38Q143.94-17.38 147.08-13.34L147.08-13.34Q148.06-11.81 148.06-10.76L148.06-10.76 148.06-6.62Q148.06-4.2 144.81-1.86L144.81-1.86Q141.7 0 138.7 0L138.7 0 123.04 0Q121.45 0 120.27-1.8L120.27-1.8Q120-2.38 120-2.85L120-2.85 120-3.6Q120-5.71 122.48-6.72L122.48-6.72Q123.04-6.89 123.75-6.89L123.75-6.89 141.12-6.89 141.12-10.37 129.99-10.37Q125.34-10.37 121.99-13.28L121.99-13.28Q120-15.27 120-17.32L120-17.32 120-20.83Q120-24.23 124.68-26.67L124.68-26.67Q127.41-27.75 129.64-27.75ZM153.25-27.75L153.25-27.75 174.91-27.75Q176.69-27.75 177.85-25.68L177.85-25.68Q178.06-25.05 178.06-24.7L178.06-24.7 178.06-23.92Q178.06-22.26 175.97-21.14L175.97-21.14Q175.3-20.86 174.7-20.86L174.7-20.86 167.52-20.86 167.52-3.23Q167.52-1.08 164.98-0.06L164.98-0.06 164.42 0 163.65 0Q161.96 0 160.82-2.07L160.82-2.07Q160.55-2.75 160.55-3.33L160.55-3.33 160.55-20.86 153.54-20.86Q151.08-20.86 150.12-23.32L150.12-23.32Q150-23.83 150-24.04L150-24.04 150-24.52Q150-26.63 152.48-27.64L152.48-27.64Q152.9-27.75 153.25-27.75Z"
                            transform="translate(0, 27.75)"
                            fill="#ffffff"
                        ></path>
                    </g>
                    <!---->
                    <!---->
                    <!---->
                    <!---->
                    <!---->
                    <!---->
                    <!---->
                </g>
            </g>
            <!---->
        </g>
    </g>
    <defs v-gra="od"></defs>
</svg>
